Patient4_TMGait_0pt8_01_right_42_EMG.mot
version=1
nRows=37
nColumns=33
inDegrees=no
endheader
time	1LAddLong	2LGlutMax	3LGlutMed	4LIliopsoas	5LSemiMemb	6LBicFemLong	7LRecFem	8LVastMed	9LVastLat	10LGasMed	11LTibAnt	12lTibPost	13LPeroneusLong	14LSol	15LExtDigLong	16LFlexDigLong	17RAddLong	18RGlutMax	19RGlutMed	20RIliopsoas	21RSemiMemb	22RBicFemLong	23RRecFem	24RVastMed	25RVastLat	26RGasMed	27RTibAnt	28RTibPost	29RPeroneusLong	30RSol	31RExtDigLong	32RFlexDigLong
47.572	-0.005188	-0.6807	0.072937	-0.017853	0.006714	-0.012054	0.09079	0.027924	-0.069885	0.036774	-0.10666	-0.010223	-0.06424	-0.15884	0.69763	-0.098724	-0.13596	-0.037384	0.22003	0.014343	0.20157	0.45548	-0.3688	0.10071	-0.12314	0.027924	0.15167	0.20691	-0.24292	0.21744	-0.003967	-0.032806
47.573	-0.003662	-0.5394	0.078125	-0.012207	0.005341	-0.029144	0.15076	0.014038	-0.063477	0.051575	-0.019989	-0.00885	-0.11597	-0.046387	0.46234	-0.085297	-0.11078	0.19791	0.60974	-0.045776	0.48599	0.57587	-0.42206	-0.009155	-0.026398	0.023956	0.075684	0.3714	0.40085	1.0834	-0.002136	-0.022583
47.574	0.002747	-0.37216	0.10757	-0.013275	0.011139	-0.048676	0.12726	0.007935	-0.060577	0.061493	0.002747	-0.005951	-0.12009	0.023499	0.27451	0.14816	-0.069733	0.29694	0.6807	-0.067902	0.44723	0.55191	-0.22079	-0.16571	0.022278	-0.007782	-0.18982	0.11963	1.1781	0.86136	-0.009613	-0.020752
47.575	-0.006104	-0.17059	0.12558	-0.001831	0.010376	-0.039215	0.075684	0.004578	-0.06424	0.038757	0.00351	-0.008392	-0.12375	0.075226	0.3537	0.089722	-0.044556	0.12817	0.61859	-0.075378	0.27115	0.53101	-0.10605	-0.1442	0.004425	0.016479	-0.18021	-0.039215	0.63477	0.19623	-0.002594	-0.024872
47.576	-0.005798	0.097504	0.15778	0.018463	0.012665	-0.047913	-0.010986	-0.008545	-0.055084	0.056305	-0.017395	-0.01358	-0.13733	0.091553	0.70084	-0.012665	-0.036926	-0.25177	0.16419	-0.048065	0.20935	0.39825	-0.10056	-0.14557	0.074768	0.023499	-0.074158	-0.034943	0.14633	-0.13199	-0.005798	-0.021667
47.577	-0.010529	0.23331	0.18662	0.048218	0.009918	-0.049591	-0.010376	-0.007782	-0.05127	0.050659	-0.044556	-0.012665	-0.07019	0.14481	0.31601	-0.003357	0.005951	-0.36407	-0.2504	0.056458	0.17548	-0.15823	-0.076447	-0.21255	0.13412	0.030365	0.00061	-0.021057	-0.28641	0.06546	0.002747	-0.016174
47.578	-0.007324	0.40482	0.24277	0.052032	0.005188	-0.043793	0.01358	0.005646	-0.048065	0.043793	-0.048065	-0.007782	-0.041046	0.10864	1.4679	0.001678	0.044403	-0.35492	-0.46967	0.034332	0.08316	-0.56183	0.008087	-0.25894	0.15732	0.009308	0.11749	-0.2269	-1.6164	-0.097046	-0.002747	-0.015869
47.579	-0.006104	0.55206	0.27603	0.018768	0.015411	-0.061798	0.033112	0.00824	-0.060577	0.028992	0.054321	-0.008545	-0.081024	0.15717	-0.21912	0.004883	0.085144	-0.45868	-0.55039	-0.086365	-0.011597	-0.45258	0.14832	-0.006104	0.22095	-0.014038	0.30487	0.056763	-2.4878	-0.38208	-0.002136	-0.011597
47.58	-0.014038	0.66498	0.25131	-0.031433	0.008698	-0.040894	-0.007172	0.00351	-0.044861	0.037842	0.023193	-0.01236	-0.068207	0.16815	-0.057983	0.009766	0.077667	-0.61584	-0.67535	-0.1004	-0.28381	-0.1767	0.32455	0.15381	0.21668	-0.008545	0.031433	0.1973	-0.793	-0.67352	-0.004425	-0.011749
47.581	-0.012054	0.76782	0.20706	-0.015869	0.006866	-0.059509	-0.046234	-0.002747	-0.030823	0.020905	0.1268	-0.01358	-0.063324	0.15595	-0.7663	-0.00351	0.057678	-0.97046	-1.4134	-0.04425	-0.17227	-0.24353	0.58014	0.11749	0.097656	0.020752	-0.32211	-0.003967	2.1889	-0.38193	0.000763	-0.013428
47.582	-0.009766	0.87524	0.15503	-0.012817	0.010834	-0.062561	-0.024872	-0.00412	-0.042419	0.016174	-0.046539	-0.006409	-0.065765	0.15701	-0.44388	0.003967	0.024567	-0.99945	-1.2321	-0.061951	0.2002	-0.2298	0.70847	0.082092	-0.35217	0.04776	-0.13763	-0.07843	2.0619	-0.42664	0.000458	-0.016632
47.583	0.010986	0.89691	0.15961	-0.010071	0.014038	-0.04364	0.07431	0.010986	-0.020294	0.033569	-0.13901	-0.010986	-0.056458	0.12894	-0.20294	0.000305	0.041809	-0.92545	-1.2102	0.04425	0.12466	-0.16159	0.71335	0.090332	-0.37323	0.04364	0.16937	-0.10544	-1.0281	-0.29083	-0.004883	-0.031586
47.584	-0.00946	0.91782	0.17273	-0.015106	0.00824	-0.030975	0.19272	-0.000153	-0.010986	0.04364	-0.080719	-0.014191	-0.085602	0.072479	-0.011292	-0.006104	0.081482	-1.0904	-1.0107	0.1033	-0.12192	-0.23682	0.78095	0.17319	-0.35751	0.028687	0.16007	-0.08606	-0.69168	-0.34836	-0.002747	-0.022583
47.585	0.001678	0.89935	0.18585	-0.016632	0.003052	-0.032349	0.29816	0.004578	-0.006561	0.074463	0.01236	-0.014648	-0.15305	0.034027	0.058899	0.001678	0.11185	-1.0622	-0.61356	0.071411	-0.24704	-0.24475	0.85358	0.11063	-0.38376	0.010529	0.084534	-0.028229	-0.79514	-0.39429	-0.005951	-0.014343
47.586	-0.000305	0.91385	0.20477	-0.007477	0.010376	-0.019684	0.27985	0.010529	-0.012054	0.070648	-0.063477	-0.015411	-0.13641	0.042267	0.086975	0.001831	0.050049	-0.82275	-0.64606	0.1088	-0.21973	-0.31769	0.88943	0.26276	-0.33493	-0.018768	-0.11627	-0.060577	-0.070038	-0.07843	-0.003357	-0.025482
47.587	-0.02182	0.89569	0.1915	-0.001678	0.009613	-0.026398	0.29114	0.008087	-0.025177	0.057526	-0.015411	-0.007782	-0.1294	0.13138	0.098572	-0.006561	-0.027161	-0.72922	-1.1324	0.14771	0.21835	-0.31464	1.0585	0.28137	-0.19134	-0.009155	-0.11673	-0.069885	-0.13702	0.089264	0.000153	-0.024109
47.588	-0.010681	0.914	0.15961	0.000458	0.008545	-0.038147	0.2713	0.014954	-0.037689	0.039063	0.14847	-0.015869	-0.12985	0.2153	0.047302	-0.003967	-0.062103	-0.6723	-1.4418	0.23666	0.19073	-0.64896	1.1078	0.25665	-0.17456	0	-0.070496	-0.081329	0.48447	-0.048981	-0.001068	-0.023651
47.589	-0.007935	0.91614	0.17548	-0.028839	0.007782	-0.032654	0.26535	0.023651	-0.031433	0.034637	0.37094	-0.01236	-0.079956	0.16022	0.23804	0.00946	-0.099182	-0.57281	-1.2782	0.30777	0.20599	-0.67429	1.0072	0.29068	0.15106	-0.016022	-0.050659	-0.06897	0.50629	0.06485	-0.001068	-0.026398
47.59	-0.007477	0.8818	0.20248	-0.022125	0.003815	-0.017853	0.29205	0.019684	-0.032349	0.000916	0.12726	-0.007782	0.057526	0.18799	-0.02594	0.021973	-0.13779	-0.33341	-0.79315	0.15549	0.28259	-0.21423	0.97977	0.38284	0.26016	-0.013428	-0.076599	-0.075378	-0.44968	0.19806	-0.002441	-0.021667
47.591	0.006104	0.80536	0.23758	-0.017242	0.002594	-0.020294	0.39276	0.012817	-0.032806	0.013428	-0.27237	-0.009766	0.052032	0.20218	0.23331	0.02121	-0.11078	-0.14755	-0.25131	-0.024872	0.29724	0.27206	1.0153	0.29678	0.25085	-0.021515	-0.12604	-0.057678	0.29938	0.1712	-0.003967	-0.02243
47.592	0.000763	0.71503	0.21881	0.008392	-0.000305	-0.030365	0.49347	0.005951	-0.04425	0.047455	0.06012	-0.014954	-0.084076	0.20142	0.58716	0.007782	-0.092621	-0.019379	-0.1741	-0.068207	0.13321	0.48492	1.0669	0.20706	0.14603	-0.024261	-0.050354	-0.038147	1.115	0.10223	-0.003052	-0.022278
47.593	-0.00824	0.62576	0.18387	0.016174	0.002289	-0.030518	0.63767	0.001984	-0.043182	0.055084	0.14542	-0.006866	-0.12497	0.19058	0.65414	0.017242	-0.048828	0.13321	0.018158	-0.01358	0.19882	0.81375	1.1429	0.11475	-0.01297	-0.017242	-0.00473	-0.005188	0.3949	0.022278	-0.003357	-0.015717
47.594	0.003204	0.57358	0.19486	0.005493	-0.007172	-0.025482	0.68726	0.006256	-0.030365	0.018768	-0.029755	-0.003815	-0.06134	0.18585	-0.26611	0.020905	0.010986	0.17716	-0.81757	0.003052	0.15884	0.6778	0.63232	0.007782	-0.10254	-0.026855	0.004272	-0.015869	0.95017	0.083313	-0.00412	-0.019989
47.595	0.004272	0.55115	0.159	0.008087	0.006104	-0.018921	0.62698	0.016479	-0.034943	0.015717	-0.078583	-0.001221	-0.032196	0.11459	-0.27054	0.007019	-0.008698	0.30518	-1.3487	0.051422	0.019073	0.27939	0.094604	0.029297	-0.18478	-0.050812	0.088501	-0.010681	1.5974	-0.089264	-0.002747	-0.025177
47.596	0.00412	0.51743	0.13336	0.002899	0.009155	-0.047302	0.60043	0.011902	-0.032349	0.02182	-0.014648	-0.005951	-0.087433	0.04837	-0.34073	0.003967	-0.066223	0.38574	-0.87936	0.022278	0.12405	0.001068	0.01358	-0.037384	0.072327	-0.071106	0.21439	-0.00351	0.72037	-0.26764	-0.000153	-0.016022
47.597	0.009308	0.51392	0.15121	-0.009003	0.003204	-0.041504	0.57281	0.005646	-0.015259	0.037079	0.010223	-0.009918	-0.092621	-0.04715	0.10254	0.014496	-0.045624	0.55298	-0.63751	0.023499	0.069733	-0.23697	-0.09613	0.045319	0.11002	0.007782	0.063782	-0.010834	0.39276	-0.18524	-0.006104	0.003052
47.598	0.004272	0.50156	0.15228	-0.00412	0.008698	-0.051422	0.44693	0.006256	-0.040741	0.074463	0.06897	-0.001373	-0.085907	-0.11536	-0.24048	0.018616	-0.058899	0.54489	0.025177	0.011444	0.006866	-0.39154	-0.13519	0.067444	0.1207	0.069733	-0.1471	-0.011902	2.3257	-0.11139	-0.002899	-0.002289
47.599	-0.011292	0.5336	0.11505	0.001373	0.010376	-0.071259	0.29862	-0.001831	-0.048065	0.079041	-0.00061	-0.004425	-0.080261	-0.026703	-0.48889	0.013275	-0.013428	0.46783	0.62393	-0.084991	-0.075073	-0.50217	-0.22385	-0.039215	0.11597	0.066986	-0.24948	0.03952	-0.40848	-0.084686	0.001373	-0.001831
47.6	-0.003967	0.60181	0.13397	-0.010071	0.013275	-0.079346	0.28961	-0.003204	-0.044098	0.070648	-0.025482	0.000305	-0.050659	0.006714	-0.47226	0.013275	0.029907	0.44784	0.8255	-0.063629	0.034485	-0.43839	-0.99152	-0.066833	-0.019073	0.020142	0.10086	0.02594	-3.0043	-0.21179	-0.004578	-0.012207
47.601	-0.006866	0.72906	0.13672	-0.0177	0.019226	-0.084991	0.31387	0.002747	-0.035248	0.084534	0.061646	0.005646	-0.038605	-0.013428	-0.25406	0.016632	0.001221	0.098114	-0.22003	-0.1033	0.37216	-0.25192	-1.2335	-0.070953	-0.19394	-0.02655	0.22018	-0.011139	-2.542	-0.00473	-0.002594	-0.014954
47.602	0.000763	0.84991	0.13534	-0.010986	0.010681	-0.065918	0.35645	-0.006561	0.002899	0.080566	0.2153	-0.000153	-0.11658	0.045471	-0.11322	0.019684	0.013733	-0.087585	-0.7544	-0.12817	0.28686	-0.12695	-0.59464	-0.022278	-0.24048	-0.067444	0.051422	-0.016785	0.94925	0.10315	0.000305	-0.015717
47.603	0.004425	0.92911	0.12726	-0.009918	0.018463	-0.075684	0.40131	-0.007019	0.003967	0.072784	0.3865	0.008545	-0.14282	0.10361	1.1452	0.031891	0.016785	-0.11551	-1.0924	-0.092163	-0.025635	0.18005	-0.36224	0.085449	0.018463	-0.063782	0.004272	-0.008698	1.1053	0.053406	-0.003967	-0.014343
47.604	-0.00885	1.0132	0.12238	-0.002136	0.016174	-0.058594	0.39764	-0.026093	-0.020447	0.033112	0.5101	0.010071	-0.095978	0.11581	-0.33203	0.040283	0.03479	-0.31281	-1.3107	-0.0383	-0.39658	0.4274	-0.23941	0.044098	0.019073	-0.054932	-0.012817	0.077209	-0.51025	-0.1828	-0.00412	-0.014038
47.605	-0.016937	1.0524	0.092773	0.019531	0.01297	-0.048218	0.5339	-0.03418	-0.050201	0.031281	0.44769	0.009003	-0.084381	0.095673	0.13916	0.021362	0.033264	-0.43549	-1.1263	0.12161	-0.14618	0.071106	-0.16693	0.029602	-0.19226	0.032043	0.012512	0.063324	-2.2678	-0.47974	-0.001984	-0.018158
47.606	-0.006714	1.0939	0.074463	0.036774	0.014191	-0.036774	0.57968	-0.041351	-0.057068	0.028687	0.033264	0.016022	-0.032196	0.096283	-0.006104	0.016937	-0.009003	-0.45319	-1.0526	0.13565	0.085297	-0.045624	-0.073242	0.081787	-0.39398	0.056	0.057678	0.040894	-2.1365	-0.47531	0.003357	-0.021667
47.607	-0.017395	1.1446	0.061493	0.036011	0.015564	-0.057526	0.56549	-0.046539	-0.065155	0.041809	-0.45197	0.013885	-0.02121	0.11856	0.57816	0.00885	-0.036469	-0.58395	-1.1598	0.050507	0.07019	0.16327	0.05127	0.010681	-0.45212	-0.034027	-0.027771	0.038452	0.093384	-0.90378	-0.002899	-0.021362
47.608	-0.019684	1.2138	0.051727	0.011292	0.012512	-0.054779	0.57236	-0.041199	-0.04715	0.038757	-0.59448	0.015717	-0.004578	0.10864	0.21683	-0.010681	-0.072327	-0.73212	-1.3249	-0.018921	0.071259	0.069733	-0.035095	0.09964	-0.2713	-0.21408	-0.019836	-0.16388	1.1954	-0.70129	-0.001526	-0.024719
